<?xml version="1.0" encoding="utf-8" standalone="no"?>
<!DOCTYPE svg PUBLIC "-//W3C//DTD SVG 1.1//EN" "http://www.w3.org/Graphics/SVG/1.1/DTD/svg11.dtd">
<svg width="3000px" height="3000px" version="1.1" xmlns="http://www.w3.org/2000/svg" xmlns:xlink="http://www.w3.org/1999/xlink">
<g id="bg">
<rect x="0" y="0" width="3000px" height="3000px" style="fill:rgb(255,255,255);"/>
</g>
<g id="ideograms">
<path d="M1500.000,275.000 A1225.000,1225.000 40.000 0,1 2536.943,847.793 L2579.268,821.173 A1275.000,1275.000 0.000 0,0 1500.000,225.000 Z" style="stroke-linecap:round;fill:rgb(228,26,28);" />
<text x="2175.7" y="276.7" font-size="78.0px" font-family="CMUBright-Roman" style="text-anchor:middle;fill:rgb(0,0,0);" transform="rotate(388.9,2175.7,276.7)" >AD Micro</text>
<path d="M2666.940,1127.339 A1225.000,1225.000 40.000 0,1 2416.531,2312.770 L2453.941,2345.944 A1275.000,1275.000 0.000 0,0 2714.570,1112.128 Z" style="stroke-linecap:round;fill:rgb(55,126,184);" />
<text x="2925.1" y="1801.0" font-size="78.0px" font-family="CMUBright-Roman" style="text-anchor:middle;fill:rgb(0,0,0);" transform="rotate(-78.1,2925.1,1801.0)" >AD OPC</text>
<path d="M2184.584,2515.859 A1225.000,1225.000 40.000 0,1 1090.722,2654.607 L1074.017,2701.734 A1275.000,1275.000 0.000 0,0 2212.526,2557.323 Z" style="stroke-linecap:round;fill:rgb(77,175,74);" />
<text x="1685.0" y="2958.8" font-size="78.0px" font-family="CMUBright-Roman" style="text-anchor:middle;fill:rgb(0,0,0);" transform="rotate(-7.2,1685.0,2958.8)" >AD Oligo</text>
<path d="M815.416,2515.859 A1225.000,1225.000 40.000 0,1 543.635,2265.500 L504.599,2296.745 A1275.000,1275.000 0.000 0,0 787.474,2557.323 Z" style="stroke-linecap:round;fill:rgb(152,78,163);" />
<text x="513.2" y="2571.3" font-size="78.0px" font-family="CMUBright-Roman" style="text-anchor:middle;fill:rgb(0,0,0);" transform="rotate(42.7,513.2,2571.3)" >Control Micro</text>
<path d="M382.801,2002.485 A1225.000,1225.000 40.000 0,1 553.369,722.495 L514.731,690.760 A1275.000,1275.000 0.000 0,0 337.201,2022.994 Z" style="stroke-linecap:round;fill:rgb(255,127,0);" />
<text x="114.7" y="1315.4" font-size="78.0px" font-family="CMUBright-Roman" style="text-anchor:middle;fill:rgb(0,0,0);" transform="rotate(-82.4,114.7,1315.4)" >Control OPC</text>
<path d="M777.465,510.774 A1225.000,1225.000 40.000 0,1 1194.157,313.794 L1181.674,265.377 A1275.000,1275.000 0.000 0,0 747.973,470.398 Z" style="stroke-linecap:round;fill:rgb(255,255,51);" />
<text x="902.7" y="236.6" font-size="78.0px" font-family="CMUBright-Roman" style="text-anchor:middle;fill:rgb(0,0,0);" transform="rotate(-25.3,902.7,236.6)" >Control Oligo</text>
</g>
<g id="link1">
<path d="M 1514.7,336.3 L 1514.9,379.5 1516.7,422.9 1520.1,466.5 1525.2,510.0 1531.9,553.3 1540.4,596.2 1550.6,638.5 1562.5,680.1 1576.3,720.8 1591.8,760.6 1609.0,799.2 1628.1,836.5 1648.8,872.6 1671.4,907.1 1695.6,940.1 1721.4,971.5 1748.9,1001.1 1778.0,1029.0 1808.7,1054.9 1840.8,1079.0 1874.3,1101.2 1909.2,1121.3 1945.4,1139.4 1982.7,1155.5 2021.2,1169.4 2060.6,1181.4 2101.0,1191.2 2142.2,1199.0 2184.1,1204.8 2226.6,1208.5 2269.6,1210.3 2312.8,1210.2 2356.3,1208.1 2399.9,1204.2 2443.3,1198.6 2486.5,1191.2 2529.3,1182.3 2571.5,1171.9 2613.0,1160.0  " style="stroke-opacity: 1.000000; stroke-width: 2.0; stroke: rgb(106,81,163); fill: none"  />
<path d="M 1544.0,337.1 L 1541.4,384.5 1537.1,432.6 1531.1,481.4 1523.5,530.8 1514.2,580.5 1503.2,630.7 1490.6,681.1 1476.4,731.7 1460.6,782.4 1443.2,833.0 1424.3,883.6 1403.8,934.0 1381.8,984.1 1358.4,1033.9 1333.5,1083.3 1307.2,1132.2 1279.5,1180.5 1250.5,1228.1 1220.2,1275.0 1188.7,1321.2 1156.0,1366.4 1122.1,1410.8 1087.2,1454.1 1051.3,1496.4 1014.3,1537.5 976.5,1577.5 937.8,1616.2 898.3,1653.6 858.0,1689.7 817.2,1724.3 775.7,1757.5 733.8,1789.1 691.4,1819.2 648.7,1847.6 605.7,1874.4 562.5,1899.4 519.2,1922.7 475.9,1944.3 432.7,1963.9  " style="stroke-opacity: 1.000000; stroke-width: 2.0; stroke: rgb(106,81,163); fill: none"  />
<path d="M 2621.2,1188.2 L 2579.8,1200.5 2538.6,1214.4 2497.7,1229.8 2457.4,1246.9 2417.7,1265.5 2378.9,1285.6 2341.2,1307.3 2304.6,1330.4 2269.3,1355.0 2235.5,1381.0 2203.3,1408.4 2172.8,1437.1 2144.0,1467.2 2117.2,1498.4 2092.3,1530.9 2069.4,1564.5 2048.6,1599.3 2030.1,1635.0 2013.7,1671.7 1999.6,1709.2 1987.7,1747.6 1978.2,1786.8 1970.9,1826.5 1966.0,1866.9 1963.3,1907.7 1962.9,1949.0 1964.7,1990.5 1968.8,2032.2 1975.0,2074.1 1983.3,2115.9 1993.6,2157.6 2005.9,2199.1 2020.1,2240.3 2036.0,2281.0 2053.6,2321.1 2072.7,2360.5 2093.3,2399.1 2115.1,2436.7 2138.1,2473.2  " style="stroke-opacity: 1.000000; stroke-width: 2.0; stroke: rgb(106,81,163); fill: none"  />
<path d="M 2628.7,1216.6 L 2580.2,1229.5 2531.1,1244.0 2481.5,1260.0 2431.5,1277.5 2381.0,1296.4 2330.2,1316.7 2279.1,1338.3 2227.8,1361.2 2176.3,1385.3 2124.7,1410.6 2072.9,1437.0 2021.2,1464.4 1969.5,1492.9 1917.9,1522.4 1866.5,1552.9 1815.3,1584.2 1764.4,1616.3 1713.8,1649.3 1663.6,1683.1 1613.8,1717.5 1564.5,1752.6 1515.9,1788.4 1467.8,1824.8 1420.5,1861.7 1373.9,1899.1 1328.2,1937.0 1283.3,1975.4 1239.4,2014.1 1196.5,2053.2 1154.7,2092.7 1114.0,2132.4 1074.5,2172.4 1036.3,2212.6 999.4,2253.0 964.0,2293.6 930.0,2334.3 897.5,2375.1 866.7,2415.9 837.5,2456.8  " style="stroke-opacity: 1.000000; stroke-width: 2.0; stroke: rgb(106,81,163); fill: none"  />
<path d="M 421.4,1936.9 L 461.4,1919.8 501.1,1901.1 540.4,1880.8 579.0,1859.0 616.9,1835.6 653.8,1810.7 689.5,1784.3 724.0,1756.6 757.1,1727.5 788.7,1697.0 818.7,1665.3 847.0,1632.4 873.4,1598.3 897.9,1563.2 920.5,1526.9 941.0,1489.7 959.3,1451.6 975.6,1412.7 989.6,1373.0 1001.4,1332.6 1010.9,1291.6 1018.2,1250.0 1023.1,1208.0 1025.9,1165.6 1026.3,1123.0 1024.6,1080.1 1020.6,1037.2 1014.5,994.2 1006.3,951.4 996.0,908.7 983.7,866.4 969.6,824.4 953.6,783.0 935.9,742.2 916.6,702.1 895.7,662.9 873.5,624.7 850.1,587.6 825.5,551.7  " style="stroke-opacity: 1.000000; stroke-width: 2.0; stroke: rgb(106,81,163); fill: none"  />
<path d="M 410.7,1909.5 L 451.1,1893.5 491.3,1875.8 531.1,1856.5 570.3,1835.6 608.7,1813.2 646.2,1789.2 682.6,1763.8 717.8,1736.9 751.6,1708.7 784.0,1679.0 814.7,1648.1 843.8,1615.9 871.1,1582.5 896.5,1547.9 920.0,1512.3 941.4,1475.6 960.7,1438.0 977.9,1399.5 992.9,1360.2 1005.7,1320.1 1016.3,1279.3 1024.6,1238.0 1030.7,1196.1 1034.5,1153.8 1036.0,1111.2 1035.3,1068.3 1032.4,1025.2 1027.4,982.2 1020.3,939.1 1011.1,896.2 999.9,853.6 986.8,811.3 971.9,769.4 955.2,728.2 936.9,687.7 917.0,647.9 895.8,609.2 873.3,571.5 849.6,534.9  " style="stroke-opacity: 1.000000; stroke-width: 2.0; stroke: rgb(106,81,163); fill: none"  />
<path d="M 400.7,1881.9 L 441.5,1866.9 482.2,1850.2 522.4,1831.9 562.1,1812.0 601.1,1790.6 639.2,1767.6 676.2,1743.1 712.1,1717.1 746.6,1689.7 779.7,1660.9 811.2,1630.7 841.1,1599.3 869.2,1566.6 895.5,1532.7 919.8,1497.7 942.2,1461.6 962.5,1424.4 980.6,1386.4 996.6,1347.4 1010.4,1307.7 1022.0,1267.2 1031.4,1226.0 1038.5,1184.3 1043.3,1142.2 1046.0,1099.6 1046.4,1056.7 1044.6,1013.6 1040.6,970.4 1034.6,927.2 1026.5,884.1 1016.4,841.1 1004.3,798.5 990.5,756.4 974.8,714.7 957.6,673.7 938.7,633.5 918.5,594.2 896.9,555.9 874.2,518.8  " style="stroke-opacity: 1.000000; stroke-width: 2.0; stroke: rgb(106,81,163); fill: none"  />
</g>
<g id="plot0">
<g id="plot0-axis">
</g>
<path d="M1500.000,397.500 A1102.500,1102.500 40.000 0,1 1527.817,397.851 L1529.583,327.873 A1172.500,1172.500 0.000 0,0 1500.000,327.500 Z" style="stroke-linecap:round;fill:rgb(230,85,13);" />
<path d="M1527.817,397.851 A1102.500,1102.500 40.000 0,1 1555.617,398.904 L1559.148,328.993 A1172.500,1172.500 0.000 0,0 1529.583,327.873 Z" style="stroke-linecap:round;fill:rgb(230,85,13);" />
<path d="M1555.617,398.904 A1102.500,1102.500 40.000 0,1 1583.381,400.658 L1588.675,330.858 A1172.500,1172.500 0.000 0,0 1559.148,328.993 Z" style="stroke-linecap:round;fill:rgb(253,174,107);" />
<path d="M1583.381,400.658 A1102.500,1102.500 40.000 0,1 1611.092,403.111 L1618.145,333.468 A1172.500,1172.500 0.000 0,0 1588.675,330.858 Z" style="stroke-linecap:round;fill:rgb(253,174,107);" />
<path d="M1611.092,403.111 A1102.500,1102.500 40.000 0,1 1638.732,406.263 L1647.540,336.820 A1172.500,1172.500 0.000 0,0 1618.145,333.468 Z" style="stroke-linecap:round;fill:rgb(253,174,107);" />
<path d="M1638.732,406.263 A1102.500,1102.500 40.000 0,1 1666.284,410.112 L1676.841,340.913 A1172.500,1172.500 0.000 0,0 1647.540,336.820 Z" style="stroke-linecap:round;fill:rgb(253,174,107);" />
<path d="M1666.284,410.112 A1102.500,1102.500 40.000 0,1 1693.730,414.654 L1706.030,345.744 A1172.500,1172.500 0.000 0,0 1676.841,340.913 Z" style="stroke-linecap:round;fill:rgb(253,174,107);" />
<path d="M1693.730,414.654 A1102.500,1102.500 40.000 0,1 1721.052,419.888 L1735.088,351.309 A1172.500,1172.500 0.000 0,0 1706.030,345.744 Z" style="stroke-linecap:round;fill:rgb(253,174,107);" />
<path d="M1721.052,419.888 A1102.500,1102.500 40.000 0,1 1748.234,425.809 L1763.995,357.607 A1172.500,1172.500 0.000 0,0 1735.088,351.309 Z" style="stroke-linecap:round;fill:rgb(253,174,107);" />
<path d="M1748.234,425.809 A1102.500,1102.500 40.000 0,1 1775.258,432.414 L1792.735,364.631 A1172.500,1172.500 0.000 0,0 1763.995,357.607 Z" style="stroke-linecap:round;fill:rgb(253,174,107);" />
<path d="M1775.258,432.414 A1102.500,1102.500 40.000 0,1 1802.107,439.699 L1821.288,372.379 A1172.500,1172.500 0.000 0,0 1792.735,364.631 Z" style="stroke-linecap:round;fill:rgb(253,174,107);" />
<path d="M1802.107,439.699 A1102.500,1102.500 40.000 0,1 1828.763,447.659 L1849.637,380.844 A1172.500,1172.500 0.000 0,0 1821.288,372.379 Z" style="stroke-linecap:round;fill:rgb(253,174,107);" />
<path d="M1828.763,447.659 A1102.500,1102.500 40.000 0,1 1855.210,456.289 L1877.763,390.022 A1172.500,1172.500 0.000 0,0 1849.637,380.844 Z" style="stroke-linecap:round;fill:rgb(253,174,107);" />
<path d="M1855.210,456.289 A1102.500,1102.500 40.000 0,1 1881.431,465.584 L1905.649,399.907 A1172.500,1172.500 0.000 0,0 1877.763,390.022 Z" style="stroke-linecap:round;fill:rgb(253,174,107);" />
<path d="M1881.431,465.584 A1102.500,1102.500 40.000 0,1 1907.409,475.537 L1933.276,410.492 A1172.500,1172.500 0.000 0,0 1905.649,399.907 Z" style="stroke-linecap:round;fill:rgb(253,174,107);" />
<path d="M1907.409,475.537 A1102.500,1102.500 40.000 0,1 1933.127,486.143 L1960.628,421.771 A1172.500,1172.500 0.000 0,0 1933.276,410.492 Z" style="stroke-linecap:round;fill:rgb(253,174,107);" />
<path d="M1933.127,486.143 A1102.500,1102.500 40.000 0,1 1958.570,497.394 L1987.686,433.736 A1172.500,1172.500 0.000 0,0 1960.628,421.771 Z" style="stroke-linecap:round;fill:rgb(253,174,107);" />
<path d="M1958.570,497.394 A1102.500,1102.500 40.000 0,1 1983.721,509.283 L2014.433,446.380 A1172.500,1172.500 0.000 0,0 1987.686,433.736 Z" style="stroke-linecap:round;fill:rgb(253,174,107);" />
<path d="M1983.721,509.283 A1102.500,1102.500 40.000 0,1 2008.564,521.803 L2040.853,459.695 A1172.500,1172.500 0.000 0,0 2014.433,446.380 Z" style="stroke-linecap:round;fill:rgb(253,174,107);" />
<path d="M2008.564,521.803 A1102.500,1102.500 40.000 0,1 2033.083,534.946 L2066.929,473.673 A1172.500,1172.500 0.000 0,0 2040.853,459.695 Z" style="stroke-linecap:round;fill:rgb(253,174,107);" />
<path d="M2033.083,534.946 A1102.500,1102.500 40.000 0,1 2057.262,548.703 L2092.644,488.304 A1172.500,1172.500 0.000 0,0 2066.929,473.673 Z" style="stroke-linecap:round;fill:rgb(253,174,107);" />
<path d="M2057.262,548.703 A1102.500,1102.500 40.000 0,1 2081.087,563.067 L2117.981,503.579 A1172.500,1172.500 0.000 0,0 2092.644,488.304 Z" style="stroke-linecap:round;fill:rgb(253,174,107);" />
<path d="M2081.087,563.067 A1102.500,1102.500 40.000 0,1 2104.542,578.026 L2142.925,519.488 A1172.500,1172.500 0.000 0,0 2117.981,503.579 Z" style="stroke-linecap:round;fill:rgb(253,174,107);" />
<path d="M2104.542,578.026 A1102.500,1102.500 40.000 0,1 2127.612,593.573 L2167.460,536.022 A1172.500,1172.500 0.000 0,0 2142.925,519.488 Z" style="stroke-linecap:round;fill:rgb(253,174,107);" />
<path d="M2127.612,593.573 A1102.500,1102.500 40.000 0,1 2150.282,609.697 L2191.570,553.170 A1172.500,1172.500 0.000 0,0 2167.460,536.022 Z" style="stroke-linecap:round;fill:rgb(253,174,107);" />
<path d="M2150.282,609.697 A1102.500,1102.500 40.000 0,1 2172.538,626.388 L2215.239,570.920 A1172.500,1172.500 0.000 0,0 2191.570,553.170 Z" style="stroke-linecap:round;fill:rgb(253,174,107);" />
<path d="M2172.538,626.388 A1102.500,1102.500 40.000 0,1 2194.366,643.634 L2238.453,589.262 A1172.500,1172.500 0.000 0,0 2215.239,570.920 Z" style="stroke-linecap:round;fill:rgb(253,174,107);" />
<path d="M2194.366,643.634 A1102.500,1102.500 40.000 0,1 2215.752,661.427 L2261.197,608.184 A1172.500,1172.500 0.000 0,0 2238.453,589.262 Z" style="stroke-linecap:round;fill:rgb(253,174,107);" />
<path d="M2215.752,661.427 A1102.500,1102.500 40.000 0,1 2236.682,679.753 L2283.456,627.674 A1172.500,1172.500 0.000 0,0 2261.197,608.184 Z" style="stroke-linecap:round;fill:rgb(253,174,107);" />
<path d="M2236.682,679.753 A1102.500,1102.500 40.000 0,1 2257.143,698.601 L2305.216,647.719 A1172.500,1172.500 0.000 0,0 2283.456,627.674 Z" style="stroke-linecap:round;fill:rgb(253,174,107);" />
<path d="M2257.143,698.601 A1102.500,1102.500 40.000 0,1 2277.122,717.960 L2326.463,668.306 A1172.500,1172.500 0.000 0,0 2305.216,647.719 Z" style="stroke-linecap:round;fill:rgb(253,174,107);" />
<path d="M2277.122,717.960 A1102.500,1102.500 40.000 0,1 2296.607,737.816 L2347.185,689.424 A1172.500,1172.500 0.000 0,0 2326.463,668.306 Z" style="stroke-linecap:round;fill:rgb(253,174,107);" />
<path d="M2296.607,737.816 A1102.500,1102.500 40.000 0,1 2315.584,758.158 L2367.367,711.057 A1172.500,1172.500 0.000 0,0 2347.185,689.424 Z" style="stroke-linecap:round;fill:rgb(253,174,107);" />
<path d="M2315.584,758.158 A1102.500,1102.500 40.000 0,1 2334.041,778.972 L2386.996,733.193 A1172.500,1172.500 0.000 0,0 2367.367,711.057 Z" style="stroke-linecap:round;fill:rgb(253,174,107);" />
<path d="M2334.041,778.972 A1102.500,1102.500 40.000 0,1 2351.968,800.245 L2406.061,755.817 A1172.500,1172.500 0.000 0,0 2386.996,733.193 Z" style="stroke-linecap:round;fill:rgb(253,174,107);" />
<path d="M2351.968,800.245 A1102.500,1102.500 40.000 0,1 2369.352,821.964 L2424.549,778.914 A1172.500,1172.500 0.000 0,0 2406.061,755.817 Z" style="stroke-linecap:round;fill:rgb(253,174,107);" />
<path d="M2369.352,821.964 A1102.500,1102.500 40.000 0,1 2386.183,844.115 L2442.449,802.471 A1172.500,1172.500 0.000 0,0 2424.549,778.914 Z" style="stroke-linecap:round;fill:rgb(253,174,107);" />
<path d="M2386.183,844.115 A1102.500,1102.500 40.000 0,1 2402.450,866.683 L2459.748,826.472 A1172.500,1172.500 0.000 0,0 2442.449,802.471 Z" style="stroke-linecap:round;fill:rgb(253,174,107);" />
<path d="M2402.450,866.683 A1102.500,1102.500 40.000 0,1 2418.142,889.654 L2476.436,850.902 A1172.500,1172.500 0.000 0,0 2459.748,826.472 Z" style="stroke-linecap:round;fill:rgb(253,174,107);" />
<path d="M2418.142,889.654 A1102.500,1102.500 40.000 0,1 2433.249,913.014 L2492.503,875.745 A1172.500,1172.500 0.000 0,0 2476.436,850.902 Z" style="stroke-linecap:round;fill:rgb(253,174,107);" />
<path d="M2550.246,1164.605 A1102.500,1102.500 40.000 0,1 2558.374,1191.210 L2625.572,1171.605 A1172.500,1172.500 0.000 0,0 2616.928,1143.310 Z" style="stroke-linecap:round;fill:rgb(230,85,13);" />
<path d="M2558.374,1191.210 A1102.500,1102.500 40.000 0,1 2565.828,1218.012 L2633.500,1200.108 A1172.500,1172.500 0.000 0,0 2625.572,1171.605 Z" style="stroke-linecap:round;fill:rgb(230,85,13);" />
<path d="M2565.828,1218.012 A1102.500,1102.500 40.000 0,1 2572.603,1244.994 L2640.705,1228.803 A1172.500,1172.500 0.000 0,0 2633.500,1200.108 Z" style="stroke-linecap:round;fill:rgb(230,85,13);" />
<path d="M2572.603,1244.994 A1102.500,1102.500 40.000 0,1 2578.696,1272.138 L2647.185,1257.671 A1172.500,1172.500 0.000 0,0 2640.705,1228.803 Z" style="stroke-linecap:round;fill:rgb(253,174,107);" />
<path d="M2578.696,1272.138 A1102.500,1102.500 40.000 0,1 2584.102,1299.427 L2652.934,1286.692 A1172.500,1172.500 0.000 0,0 2647.185,1257.671 Z" style="stroke-linecap:round;fill:rgb(253,174,107);" />
<path d="M2584.102,1299.427 A1102.500,1102.500 40.000 0,1 2588.817,1326.844 L2657.949,1315.850 A1172.500,1172.500 0.000 0,0 2652.934,1286.692 Z" style="stroke-linecap:round;fill:rgb(253,174,107);" />
<path d="M2588.817,1326.844 A1102.500,1102.500 40.000 0,1 2592.840,1354.371 L2662.226,1345.125 A1172.500,1172.500 0.000 0,0 2657.949,1315.850 Z" style="stroke-linecap:round;fill:rgb(253,174,107);" />
<path d="M2592.840,1354.371 A1102.500,1102.500 40.000 0,1 2596.166,1381.991 L2665.764,1374.498 A1172.500,1172.500 0.000 0,0 2662.226,1345.125 Z" style="stroke-linecap:round;fill:rgb(253,174,107);" />
<path d="M2596.166,1381.991 A1102.500,1102.500 40.000 0,1 2598.795,1409.686 L2668.559,1403.952 A1172.500,1172.500 0.000 0,0 2665.764,1374.498 Z" style="stroke-linecap:round;fill:rgb(253,174,107);" />
<path d="M2598.795,1409.686 A1102.500,1102.500 40.000 0,1 2600.724,1437.438 L2670.611,1433.466 A1172.500,1172.500 0.000 0,0 2668.559,1403.952 Z" style="stroke-linecap:round;fill:rgb(253,174,107);" />
<path d="M2600.724,1437.438 A1102.500,1102.500 40.000 0,1 2601.952,1465.231 L2671.917,1463.023 A1172.500,1172.500 0.000 0,0 2670.611,1433.466 Z" style="stroke-linecap:round;fill:rgb(253,174,107);" />
<path d="M2601.952,1465.231 A1102.500,1102.500 40.000 0,1 2602.478,1493.045 L2672.477,1492.603 A1172.500,1172.500 0.000 0,0 2671.917,1463.023 Z" style="stroke-linecap:round;fill:rgb(253,174,107);" />
<path d="M2602.478,1493.045 A1102.500,1102.500 40.000 0,1 2602.303,1520.864 L2672.290,1522.189 A1172.500,1172.500 0.000 0,0 2672.477,1492.603 Z" style="stroke-linecap:round;fill:rgb(253,174,107);" />
<path d="M2602.303,1520.864 A1102.500,1102.500 40.000 0,1 2601.425,1548.669 L2671.357,1551.760 A1172.500,1172.500 0.000 0,0 2672.290,1522.189 Z" style="stroke-linecap:round;fill:rgb(253,174,107);" />
<path d="M2601.425,1548.669 A1102.500,1102.500 40.000 0,1 2599.847,1576.444 L2669.678,1581.298 A1172.500,1172.500 0.000 0,0 2671.357,1551.760 Z" style="stroke-linecap:round;fill:rgb(253,174,107);" />
<path d="M2599.847,1576.444 A1102.500,1102.500 40.000 0,1 2597.568,1604.170 L2667.255,1610.784 A1172.500,1172.500 0.000 0,0 2669.678,1581.298 Z" style="stroke-linecap:round;fill:rgb(253,174,107);" />
<path d="M2597.568,1604.170 A1102.500,1102.500 40.000 0,1 2594.590,1631.829 L2664.088,1640.200 A1172.500,1172.500 0.000 0,0 2667.255,1610.784 Z" style="stroke-linecap:round;fill:rgb(253,174,107);" />
<path d="M2594.590,1631.829 A1102.500,1102.500 40.000 0,1 2590.915,1659.405 L2660.180,1669.526 A1172.500,1172.500 0.000 0,0 2664.088,1640.200 Z" style="stroke-linecap:round;fill:rgb(253,174,107);" />
<path d="M2590.915,1659.405 A1102.500,1102.500 40.000 0,1 2586.546,1686.879 L2655.533,1698.745 A1172.500,1172.500 0.000 0,0 2660.180,1669.526 Z" style="stroke-linecap:round;fill:rgb(253,174,107);" />
<path d="M2586.546,1686.879 A1102.500,1102.500 40.000 0,1 2581.485,1714.234 L2650.151,1727.837 A1172.500,1172.500 0.000 0,0 2655.533,1698.745 Z" style="stroke-linecap:round;fill:rgb(253,174,107);" />
<path d="M2581.485,1714.234 A1102.500,1102.500 40.000 0,1 2575.735,1741.453 L2644.036,1756.783 A1172.500,1172.500 0.000 0,0 2650.151,1727.837 Z" style="stroke-linecap:round;fill:rgb(253,174,107);" />
<path d="M2575.735,1741.453 A1102.500,1102.500 40.000 0,1 2569.301,1768.518 L2637.193,1785.567 A1172.500,1172.500 0.000 0,0 2644.036,1756.783 Z" style="stroke-linecap:round;fill:rgb(253,174,107);" />
<path d="M2569.301,1768.518 A1102.500,1102.500 40.000 0,1 2562.185,1795.412 L2629.626,1814.168 A1172.500,1172.500 0.000 0,0 2637.193,1785.567 Z" style="stroke-linecap:round;fill:rgb(253,174,107);" />
<path d="M2562.185,1795.412 A1102.500,1102.500 40.000 0,1 2554.394,1822.118 L2621.339,1842.570 A1172.500,1172.500 0.000 0,0 2629.626,1814.168 Z" style="stroke-linecap:round;fill:rgb(253,174,107);" />
<path d="M2554.394,1822.118 A1102.500,1102.500 40.000 0,1 2545.931,1848.619 L2612.339,1870.753 A1172.500,1172.500 0.000 0,0 2621.339,1842.570 Z" style="stroke-linecap:round;fill:rgb(253,174,107);" />
<path d="M2545.931,1848.619 A1102.500,1102.500 40.000 0,1 2536.802,1874.898 L2602.630,1898.701 A1172.500,1172.500 0.000 0,0 2612.339,1870.753 Z" style="stroke-linecap:round;fill:rgb(253,174,107);" />
<path d="M2536.802,1874.898 A1102.500,1102.500 40.000 0,1 2527.013,1900.938 L2592.220,1926.394 A1172.500,1172.500 0.000 0,0 2602.630,1898.701 Z" style="stroke-linecap:round;fill:rgb(253,174,107);" />
<path d="M2527.013,1900.938 A1102.500,1102.500 40.000 0,1 2516.570,1926.723 L2581.114,1953.816 A1172.500,1172.500 0.000 0,0 2592.220,1926.394 Z" style="stroke-linecap:round;fill:rgb(253,174,107);" />
<path d="M2516.570,1926.723 A1102.500,1102.500 40.000 0,1 2505.479,1952.236 L2569.319,1980.950 A1172.500,1172.500 0.000 0,0 2581.114,1953.816 Z" style="stroke-linecap:round;fill:rgb(253,174,107);" />
<path d="M2505.479,1952.236 A1102.500,1102.500 40.000 0,1 2493.749,1977.461 L2556.844,2007.776 A1172.500,1172.500 0.000 0,0 2569.319,1980.950 Z" style="stroke-linecap:round;fill:rgb(253,174,107);" />
<path d="M2493.749,1977.461 A1102.500,1102.500 40.000 0,1 2481.386,2002.383 L2543.696,2034.280 A1172.500,1172.500 0.000 0,0 2556.844,2007.776 Z" style="stroke-linecap:round;fill:rgb(253,174,107);" />
<path d="M2481.386,2002.383 A1102.500,1102.500 40.000 0,1 2468.398,2026.984 L2529.883,2060.443 A1172.500,1172.500 0.000 0,0 2543.696,2034.280 Z" style="stroke-linecap:round;fill:rgb(253,174,107);" />
<path d="M2468.398,2026.984 A1102.500,1102.500 40.000 0,1 2454.793,2051.250 L2515.415,2086.250 A1172.500,1172.500 0.000 0,0 2529.883,2060.443 Z" style="stroke-linecap:round;fill:rgb(253,174,107);" />
<path d="M2454.793,2051.250 A1102.500,1102.500 40.000 0,1 2440.580,2075.165 L2500.300,2111.683 A1172.500,1172.500 0.000 0,0 2515.415,2086.250 Z" style="stroke-linecap:round;fill:rgb(253,174,107);" />
<path d="M2440.580,2075.165 A1102.500,1102.500 40.000 0,1 2425.769,2098.714 L2484.548,2136.727 A1172.500,1172.500 0.000 0,0 2500.300,2111.683 Z" style="stroke-linecap:round;fill:rgb(253,174,107);" />
<path d="M2425.769,2098.714 A1102.500,1102.500 40.000 0,1 2410.368,2121.881 L2468.169,2161.366 A1172.500,1172.500 0.000 0,0 2484.548,2136.727 Z" style="stroke-linecap:round;fill:rgb(253,174,107);" />
<path d="M2410.368,2121.881 A1102.500,1102.500 40.000 0,1 2394.388,2144.653 L2451.174,2185.583 A1172.500,1172.500 0.000 0,0 2468.169,2161.366 Z" style="stroke-linecap:round;fill:rgb(253,174,107);" />
<path d="M2394.388,2144.653 A1102.500,1102.500 40.000 0,1 2377.838,2167.014 L2433.573,2209.364 A1172.500,1172.500 0.000 0,0 2451.174,2185.583 Z" style="stroke-linecap:round;fill:rgb(253,174,107);" />
<path d="M2377.838,2167.014 A1102.500,1102.500 40.000 0,1 2360.729,2188.950 L2415.378,2232.693 A1172.500,1172.500 0.000 0,0 2433.573,2209.364 Z" style="stroke-linecap:round;fill:rgb(253,174,107);" />
<path d="M2360.729,2188.950 A1102.500,1102.500 40.000 0,1 2343.072,2210.448 L2396.600,2255.556 A1172.500,1172.500 0.000 0,0 2415.378,2232.693 Z" style="stroke-linecap:round;fill:rgb(253,174,107);" />
<path d="M2343.072,2210.448 A1102.500,1102.500 40.000 0,1 2324.878,2231.493 L2377.251,2277.937 A1172.500,1172.500 0.000 0,0 2396.600,2255.556 Z" style="stroke-linecap:round;fill:rgb(253,174,107);" />
<path d="M2116.126,2414.273 A1102.500,1102.500 40.000 0,1 2092.862,2429.528 L2130.504,2488.545 A1172.500,1172.500 0.000 0,0 2155.245,2472.322 Z" style="stroke-linecap:round;fill:rgb(230,85,13);" />
<path d="M2092.862,2429.528 A1102.500,1102.500 40.000 0,1 2069.220,2444.190 L2105.361,2504.139 A1172.500,1172.500 0.000 0,0 2130.504,2488.545 Z" style="stroke-linecap:round;fill:rgb(253,174,107);" />
<path d="M2069.220,2444.190 A1102.500,1102.500 40.000 0,1 2045.216,2458.252 L2079.833,2519.093 A1172.500,1172.500 0.000 0,0 2105.361,2504.139 Z" style="stroke-linecap:round;fill:rgb(253,174,107);" />
<path d="M2045.216,2458.252 A1102.500,1102.500 40.000 0,1 2020.865,2471.703 L2053.935,2533.398 A1172.500,1172.500 0.000 0,0 2079.833,2519.093 Z" style="stroke-linecap:round;fill:rgb(253,174,107);" />
<path d="M2020.865,2471.703 A1102.500,1102.500 40.000 0,1 1996.182,2484.535 L2027.685,2547.046 A1172.500,1172.500 0.000 0,0 2053.935,2533.398 Z" style="stroke-linecap:round;fill:rgb(253,174,107);" />
<path d="M1996.182,2484.535 A1102.500,1102.500 40.000 0,1 1971.183,2496.741 L2001.099,2560.026 A1172.500,1172.500 0.000 0,0 2027.685,2547.046 Z" style="stroke-linecap:round;fill:rgb(253,174,107);" />
<path d="M1971.183,2496.741 A1102.500,1102.500 40.000 0,1 1945.884,2508.312 L1974.194,2572.332 A1172.500,1172.500 0.000 0,0 2001.099,2560.026 Z" style="stroke-linecap:round;fill:rgb(253,174,107);" />
<path d="M1945.884,2508.312 A1102.500,1102.500 40.000 0,1 1920.302,2519.241 L1946.987,2583.955 A1172.500,1172.500 0.000 0,0 1974.194,2572.332 Z" style="stroke-linecap:round;fill:rgb(253,174,107);" />
<path d="M1920.302,2519.241 A1102.500,1102.500 40.000 0,1 1894.451,2529.521 L1919.496,2594.888 A1172.500,1172.500 0.000 0,0 1946.987,2583.955 Z" style="stroke-linecap:round;fill:rgb(253,174,107);" />
<path d="M1894.451,2529.521 A1102.500,1102.500 40.000 0,1 1868.350,2539.146 L1891.737,2605.124 A1172.500,1172.500 0.000 0,0 1919.496,2594.888 Z" style="stroke-linecap:round;fill:rgb(253,174,107);" />
<path d="M1868.350,2539.146 A1102.500,1102.500 40.000 0,1 1842.014,2548.109 L1863.729,2614.656 A1172.500,1172.500 0.000 0,0 1891.737,2605.124 Z" style="stroke-linecap:round;fill:rgb(253,174,107);" />
<path d="M1842.014,2548.109 A1102.500,1102.500 40.000 0,1 1815.460,2556.405 L1835.489,2623.478 A1172.500,1172.500 0.000 0,0 1863.729,2614.656 Z" style="stroke-linecap:round;fill:rgb(253,174,107);" />
<path d="M1815.460,2556.405 A1102.500,1102.500 40.000 0,1 1788.706,2564.028 L1807.036,2631.585 A1172.500,1172.500 0.000 0,0 1835.489,2623.478 Z" style="stroke-linecap:round;fill:rgb(253,174,107);" />
<path d="M1788.706,2564.028 A1102.500,1102.500 40.000 0,1 1761.767,2570.973 L1778.387,2638.972 A1172.500,1172.500 0.000 0,0 1807.036,2631.585 Z" style="stroke-linecap:round;fill:rgb(253,174,107);" />
<path d="M1761.767,2570.973 A1102.500,1102.500 40.000 0,1 1734.662,2577.237 L1749.561,2645.633 A1172.500,1172.500 0.000 0,0 1778.387,2638.972 Z" style="stroke-linecap:round;fill:rgb(253,174,107);" />
<path d="M1734.662,2577.237 A1102.500,1102.500 40.000 0,1 1707.408,2582.815 L1720.576,2651.565 A1172.500,1172.500 0.000 0,0 1749.561,2645.633 Z" style="stroke-linecap:round;fill:rgb(253,174,107);" />
<path d="M1707.408,2582.815 A1102.500,1102.500 40.000 0,1 1680.021,2587.703 L1691.451,2656.764 A1172.500,1172.500 0.000 0,0 1720.576,2651.565 Z" style="stroke-linecap:round;fill:rgb(253,174,107);" />
<path d="M1680.021,2587.703 A1102.500,1102.500 40.000 0,1 1652.520,2591.899 L1662.204,2661.226 A1172.500,1172.500 0.000 0,0 1691.451,2656.764 Z" style="stroke-linecap:round;fill:rgb(253,174,107);" />
<path d="M1652.520,2591.899 A1102.500,1102.500 40.000 0,1 1624.922,2595.400 L1632.853,2664.949 A1172.500,1172.500 0.000 0,0 1662.204,2661.226 Z" style="stroke-linecap:round;fill:rgb(253,174,107);" />
<path d="M1624.922,2595.400 A1102.500,1102.500 40.000 0,1 1597.244,2598.203 L1603.418,2667.930 A1172.500,1172.500 0.000 0,0 1632.853,2664.949 Z" style="stroke-linecap:round;fill:rgb(253,174,107);" />
<path d="M1597.244,2598.203 A1102.500,1102.500 40.000 0,1 1569.504,2600.307 L1573.917,2670.168 A1172.500,1172.500 0.000 0,0 1603.418,2667.930 Z" style="stroke-linecap:round;fill:rgb(253,174,107);" />
<path d="M1569.504,2600.307 A1102.500,1102.500 40.000 0,1 1541.720,2601.710 L1544.369,2671.660 A1172.500,1172.500 0.000 0,0 1573.917,2670.168 Z" style="stroke-linecap:round;fill:rgb(253,174,107);" />
<path d="M1541.720,2601.710 A1102.500,1102.500 40.000 0,1 1513.910,2602.412 L1514.793,2672.407 A1172.500,1172.500 0.000 0,0 1544.369,2671.660 Z" style="stroke-linecap:round;fill:rgb(253,174,107);" />
<path d="M1513.910,2602.412 A1102.500,1102.500 40.000 0,1 1486.090,2602.412 L1485.207,2672.407 A1172.500,1172.500 0.000 0,0 1514.793,2672.407 Z" style="stroke-linecap:round;fill:rgb(253,174,107);" />
<path d="M1486.090,2602.412 A1102.500,1102.500 40.000 0,1 1458.280,2601.710 L1455.631,2671.660 A1172.500,1172.500 0.000 0,0 1485.207,2672.407 Z" style="stroke-linecap:round;fill:rgb(253,174,107);" />
<path d="M1458.280,2601.710 A1102.500,1102.500 40.000 0,1 1430.496,2600.307 L1426.083,2670.168 A1172.500,1172.500 0.000 0,0 1455.631,2671.660 Z" style="stroke-linecap:round;fill:rgb(253,174,107);" />
<path d="M1430.496,2600.307 A1102.500,1102.500 40.000 0,1 1402.756,2598.203 L1396.582,2667.930 A1172.500,1172.500 0.000 0,0 1426.083,2670.168 Z" style="stroke-linecap:round;fill:rgb(253,174,107);" />
<path d="M1402.756,2598.203 A1102.500,1102.500 40.000 0,1 1375.078,2595.400 L1367.147,2664.949 A1172.500,1172.500 0.000 0,0 1396.582,2667.930 Z" style="stroke-linecap:round;fill:rgb(253,174,107);" />
<path d="M1375.078,2595.400 A1102.500,1102.500 40.000 0,1 1347.480,2591.899 L1337.796,2661.226 A1172.500,1172.500 0.000 0,0 1367.147,2664.949 Z" style="stroke-linecap:round;fill:rgb(253,174,107);" />
<path d="M1347.480,2591.899 A1102.500,1102.500 40.000 0,1 1319.979,2587.703 L1308.549,2656.764 A1172.500,1172.500 0.000 0,0 1337.796,2661.226 Z" style="stroke-linecap:round;fill:rgb(253,174,107);" />
<path d="M1319.979,2587.703 A1102.500,1102.500 40.000 0,1 1292.592,2582.815 L1279.424,2651.565 A1172.500,1172.500 0.000 0,0 1308.549,2656.764 Z" style="stroke-linecap:round;fill:rgb(253,174,107);" />
<path d="M1292.592,2582.815 A1102.500,1102.500 40.000 0,1 1265.338,2577.237 L1250.439,2645.633 A1172.500,1172.500 0.000 0,0 1279.424,2651.565 Z" style="stroke-linecap:round;fill:rgb(253,174,107);" />
<path d="M1265.338,2577.237 A1102.500,1102.500 40.000 0,1 1238.233,2570.973 L1221.613,2638.972 A1172.500,1172.500 0.000 0,0 1250.439,2645.633 Z" style="stroke-linecap:round;fill:rgb(253,174,107);" />
<path d="M1238.233,2570.973 A1102.500,1102.500 40.000 0,1 1211.294,2564.028 L1192.964,2631.585 A1172.500,1172.500 0.000 0,0 1221.613,2638.972 Z" style="stroke-linecap:round;fill:rgb(253,174,107);" />
<path d="M1211.294,2564.028 A1102.500,1102.500 40.000 0,1 1184.540,2556.405 L1164.511,2623.478 A1172.500,1172.500 0.000 0,0 1192.964,2631.585 Z" style="stroke-linecap:round;fill:rgb(253,174,107);" />
<path d="M1184.540,2556.405 A1102.500,1102.500 40.000 0,1 1157.986,2548.109 L1136.271,2614.656 A1172.500,1172.500 0.000 0,0 1164.511,2623.478 Z" style="stroke-linecap:round;fill:rgb(253,174,107);" />
<path d="M1157.986,2548.109 A1102.500,1102.500 40.000 0,1 1131.650,2539.146 L1108.263,2605.124 A1172.500,1172.500 0.000 0,0 1136.271,2614.656 Z" style="stroke-linecap:round;fill:rgb(253,174,107);" />
<path d="M883.874,2414.273 A1102.500,1102.500 40.000 0,1 861.002,2398.437 L820.431,2455.480 A1172.500,1172.500 0.000 0,0 844.755,2472.322 Z" style="stroke-linecap:round;fill:rgb(230,85,13);" />
<path d="M861.002,2398.437 A1102.500,1102.500 40.000 0,1 838.537,2382.028 L796.540,2438.030 A1172.500,1172.500 0.000 0,0 820.431,2455.480 Z" style="stroke-linecap:round;fill:rgb(253,174,107);" />
<path d="M838.537,2382.028 A1102.500,1102.500 40.000 0,1 816.494,2365.058 L773.096,2419.982 A1172.500,1172.500 0.000 0,0 796.540,2438.030 Z" style="stroke-linecap:round;fill:rgb(253,174,107);" />
<path d="M816.494,2365.058 A1102.500,1102.500 40.000 0,1 794.885,2347.537 L750.116,2401.349 A1172.500,1172.500 0.000 0,0 773.096,2419.982 Z" style="stroke-linecap:round;fill:rgb(253,174,107);" />
<path d="M794.885,2347.537 A1102.500,1102.500 40.000 0,1 773.725,2329.476 L727.612,2382.142 A1172.500,1172.500 0.000 0,0 750.116,2401.349 Z" style="stroke-linecap:round;fill:rgb(253,174,107);" />
<path d="M773.725,2329.476 A1102.500,1102.500 40.000 0,1 753.028,2310.888 L705.601,2362.373 A1172.500,1172.500 0.000 0,0 727.612,2382.142 Z" style="stroke-linecap:round;fill:rgb(253,174,107);" />
<path d="M753.028,2310.888 A1102.500,1102.500 40.000 0,1 732.806,2291.783 L684.095,2342.055 A1172.500,1172.500 0.000 0,0 705.601,2362.373 Z" style="stroke-linecap:round;fill:rgb(253,174,107);" />
<path d="M732.806,2291.783 A1102.500,1102.500 40.000 0,1 713.073,2272.174 L663.109,2321.200 A1172.500,1172.500 0.000 0,0 684.095,2342.055 Z" style="stroke-linecap:round;fill:rgb(253,174,107);" />
<path d="M713.073,2272.174 A1102.500,1102.500 40.000 0,1 693.841,2252.073 L642.656,2299.823 A1172.500,1172.500 0.000 0,0 663.109,2321.200 Z" style="stroke-linecap:round;fill:rgb(253,174,107);" />
<path d="M693.841,2252.073 A1102.500,1102.500 40.000 0,1 675.122,2231.493 L622.749,2277.937 A1172.500,1172.500 0.000 0,0 642.656,2299.823 Z" style="stroke-linecap:round;fill:rgb(253,174,107);" />
<path d="M675.122,2231.493 A1102.500,1102.500 40.000 0,1 656.928,2210.448 L603.400,2255.556 A1172.500,1172.500 0.000 0,0 622.749,2277.937 Z" style="stroke-linecap:round;fill:rgb(253,174,107);" />
<path d="M656.928,2210.448 A1102.500,1102.500 40.000 0,1 639.271,2188.950 L584.622,2232.693 A1172.500,1172.500 0.000 0,0 603.400,2255.556 Z" style="stroke-linecap:round;fill:rgb(253,174,107);" />
<path d="M494.521,1952.236 A1102.500,1102.500 40.000 0,1 483.430,1926.723 L418.886,1953.816 A1172.500,1172.500 0.000 0,0 430.681,1980.950 Z" style="stroke-linecap:round;fill:rgb(230,85,13);" />
<path d="M483.430,1926.723 A1102.500,1102.500 40.000 0,1 472.987,1900.938 L407.780,1926.394 A1172.500,1172.500 0.000 0,0 418.886,1953.816 Z" style="stroke-linecap:round;fill:rgb(230,85,13);" />
<path d="M472.987,1900.938 A1102.500,1102.500 40.000 0,1 463.198,1874.898 L397.370,1898.701 A1172.500,1172.500 0.000 0,0 407.780,1926.394 Z" style="stroke-linecap:round;fill:rgb(230,85,13);" />
<path d="M463.198,1874.898 A1102.500,1102.500 40.000 0,1 454.069,1848.619 L387.661,1870.753 A1172.500,1172.500 0.000 0,0 397.370,1898.701 Z" style="stroke-linecap:round;fill:rgb(230,85,13);" />
<path d="M454.069,1848.619 A1102.500,1102.500 40.000 0,1 445.606,1822.118 L378.661,1842.570 A1172.500,1172.500 0.000 0,0 387.661,1870.753 Z" style="stroke-linecap:round;fill:rgb(253,174,107);" />
<path d="M445.606,1822.118 A1102.500,1102.500 40.000 0,1 437.815,1795.412 L370.374,1814.168 A1172.500,1172.500 0.000 0,0 378.661,1842.570 Z" style="stroke-linecap:round;fill:rgb(253,174,107);" />
<path d="M437.815,1795.412 A1102.500,1102.500 40.000 0,1 430.699,1768.518 L362.807,1785.567 A1172.500,1172.500 0.000 0,0 370.374,1814.168 Z" style="stroke-linecap:round;fill:rgb(253,174,107);" />
<path d="M430.699,1768.518 A1102.500,1102.500 40.000 0,1 424.265,1741.453 L355.964,1756.783 A1172.500,1172.500 0.000 0,0 362.807,1785.567 Z" style="stroke-linecap:round;fill:rgb(253,174,107);" />
<path d="M424.265,1741.453 A1102.500,1102.500 40.000 0,1 418.515,1714.234 L349.849,1727.837 A1172.500,1172.500 0.000 0,0 355.964,1756.783 Z" style="stroke-linecap:round;fill:rgb(253,174,107);" />
<path d="M418.515,1714.234 A1102.500,1102.500 40.000 0,1 413.454,1686.879 L344.467,1698.745 A1172.500,1172.500 0.000 0,0 349.849,1727.837 Z" style="stroke-linecap:round;fill:rgb(253,174,107);" />
<path d="M413.454,1686.879 A1102.500,1102.500 40.000 0,1 409.085,1659.405 L339.820,1669.526 A1172.500,1172.500 0.000 0,0 344.467,1698.745 Z" style="stroke-linecap:round;fill:rgb(253,174,107);" />
<path d="M409.085,1659.405 A1102.500,1102.500 40.000 0,1 405.410,1631.829 L335.912,1640.200 A1172.500,1172.500 0.000 0,0 339.820,1669.526 Z" style="stroke-linecap:round;fill:rgb(253,174,107);" />
<path d="M405.410,1631.829 A1102.500,1102.500 40.000 0,1 402.432,1604.170 L332.745,1610.784 A1172.500,1172.500 0.000 0,0 335.912,1640.200 Z" style="stroke-linecap:round;fill:rgb(253,174,107);" />
<path d="M402.432,1604.170 A1102.500,1102.500 40.000 0,1 400.153,1576.444 L330.322,1581.298 A1172.500,1172.500 0.000 0,0 332.745,1610.784 Z" style="stroke-linecap:round;fill:rgb(253,174,107);" />
<path d="M400.153,1576.444 A1102.500,1102.500 40.000 0,1 398.575,1548.669 L328.643,1551.760 A1172.500,1172.500 0.000 0,0 330.322,1581.298 Z" style="stroke-linecap:round;fill:rgb(253,174,107);" />
<path d="M398.575,1548.669 A1102.500,1102.500 40.000 0,1 397.697,1520.864 L327.710,1522.189 A1172.500,1172.500 0.000 0,0 328.643,1551.760 Z" style="stroke-linecap:round;fill:rgb(253,174,107);" />
<path d="M397.697,1520.864 A1102.500,1102.500 40.000 0,1 397.522,1493.045 L327.523,1492.603 A1172.500,1172.500 0.000 0,0 327.710,1522.189 Z" style="stroke-linecap:round;fill:rgb(253,174,107);" />
<path d="M397.522,1493.045 A1102.500,1102.500 40.000 0,1 398.048,1465.231 L328.083,1463.023 A1172.500,1172.500 0.000 0,0 327.523,1492.603 Z" style="stroke-linecap:round;fill:rgb(253,174,107);" />
<path d="M398.048,1465.231 A1102.500,1102.500 40.000 0,1 399.276,1437.438 L329.389,1433.466 A1172.500,1172.500 0.000 0,0 328.083,1463.023 Z" style="stroke-linecap:round;fill:rgb(253,174,107);" />
<path d="M399.276,1437.438 A1102.500,1102.500 40.000 0,1 401.205,1409.686 L331.441,1403.952 A1172.500,1172.500 0.000 0,0 329.389,1433.466 Z" style="stroke-linecap:round;fill:rgb(253,174,107);" />
<path d="M401.205,1409.686 A1102.500,1102.500 40.000 0,1 403.834,1381.991 L334.236,1374.498 A1172.500,1172.500 0.000 0,0 331.441,1403.952 Z" style="stroke-linecap:round;fill:rgb(253,174,107);" />
<path d="M403.834,1381.991 A1102.500,1102.500 40.000 0,1 407.160,1354.371 L337.774,1345.125 A1172.500,1172.500 0.000 0,0 334.236,1374.498 Z" style="stroke-linecap:round;fill:rgb(253,174,107);" />
<path d="M407.160,1354.371 A1102.500,1102.500 40.000 0,1 411.183,1326.844 L342.051,1315.850 A1172.500,1172.500 0.000 0,0 337.774,1345.125 Z" style="stroke-linecap:round;fill:rgb(253,174,107);" />
<path d="M411.183,1326.844 A1102.500,1102.500 40.000 0,1 415.898,1299.427 L347.066,1286.692 A1172.500,1172.500 0.000 0,0 342.051,1315.850 Z" style="stroke-linecap:round;fill:rgb(253,174,107);" />
<path d="M415.898,1299.427 A1102.500,1102.500 40.000 0,1 421.304,1272.138 L352.815,1257.671 A1172.500,1172.500 0.000 0,0 347.066,1286.692 Z" style="stroke-linecap:round;fill:rgb(253,174,107);" />
<path d="M421.304,1272.138 A1102.500,1102.500 40.000 0,1 427.397,1244.994 L359.295,1228.803 A1172.500,1172.500 0.000 0,0 352.815,1257.671 Z" style="stroke-linecap:round;fill:rgb(253,174,107);" />
<path d="M427.397,1244.994 A1102.500,1102.500 40.000 0,1 434.172,1218.012 L366.500,1200.108 A1172.500,1172.500 0.000 0,0 359.295,1228.803 Z" style="stroke-linecap:round;fill:rgb(253,174,107);" />
<path d="M434.172,1218.012 A1102.500,1102.500 40.000 0,1 441.626,1191.210 L374.428,1171.605 A1172.500,1172.500 0.000 0,0 366.500,1200.108 Z" style="stroke-linecap:round;fill:rgb(253,174,107);" />
<path d="M441.626,1191.210 A1102.500,1102.500 40.000 0,1 449.754,1164.605 L383.072,1143.310 A1172.500,1172.500 0.000 0,0 374.428,1171.605 Z" style="stroke-linecap:round;fill:rgb(253,174,107);" />
<path d="M449.754,1164.605 A1102.500,1102.500 40.000 0,1 458.551,1138.213 L392.427,1115.242 A1172.500,1172.500 0.000 0,0 383.072,1143.310 Z" style="stroke-linecap:round;fill:rgb(253,174,107);" />
<path d="M458.551,1138.213 A1102.500,1102.500 40.000 0,1 468.011,1112.051 L402.488,1087.420 A1172.500,1172.500 0.000 0,0 392.427,1115.242 Z" style="stroke-linecap:round;fill:rgb(253,174,107);" />
<path d="M468.011,1112.051 A1102.500,1102.500 40.000 0,1 478.128,1086.137 L413.247,1059.860 A1172.500,1172.500 0.000 0,0 402.488,1087.420 Z" style="stroke-linecap:round;fill:rgb(253,174,107);" />
<path d="M478.128,1086.137 A1102.500,1102.500 40.000 0,1 488.895,1060.485 L424.698,1032.580 A1172.500,1172.500 0.000 0,0 413.247,1059.860 Z" style="stroke-linecap:round;fill:rgb(253,174,107);" />
<path d="M488.895,1060.485 A1102.500,1102.500 40.000 0,1 500.306,1035.114 L436.834,1005.598 A1172.500,1172.500 0.000 0,0 424.698,1032.580 Z" style="stroke-linecap:round;fill:rgb(253,174,107);" />
<path d="M500.306,1035.114 A1102.500,1102.500 40.000 0,1 512.354,1010.039 L449.646,978.930 A1172.500,1172.500 0.000 0,0 436.834,1005.598 Z" style="stroke-linecap:round;fill:rgb(253,174,107);" />
<path d="M512.354,1010.039 A1102.500,1102.500 40.000 0,1 525.031,985.276 L463.128,952.595 A1172.500,1172.500 0.000 0,0 449.646,978.930 Z" style="stroke-linecap:round;fill:rgb(253,174,107);" />
<path d="M525.031,985.276 A1102.500,1102.500 40.000 0,1 538.328,960.840 L477.270,926.608 A1172.500,1172.500 0.000 0,0 463.128,952.595 Z" style="stroke-linecap:round;fill:rgb(253,174,107);" />
<path d="M538.328,960.840 A1102.500,1102.500 40.000 0,1 552.238,936.748 L492.062,900.986 A1172.500,1172.500 0.000 0,0 477.270,926.608 Z" style="stroke-linecap:round;fill:rgb(253,174,107);" />
<path d="M552.238,936.748 A1102.500,1102.500 40.000 0,1 566.751,913.014 L507.497,875.745 A1172.500,1172.500 0.000 0,0 492.062,900.986 Z" style="stroke-linecap:round;fill:rgb(253,174,107);" />
<path d="M566.751,913.014 A1102.500,1102.500 40.000 0,1 581.858,889.654 L523.564,850.902 A1172.500,1172.500 0.000 0,0 507.497,875.745 Z" style="stroke-linecap:round;fill:rgb(253,174,107);" />
<path d="M581.858,889.654 A1102.500,1102.500 40.000 0,1 597.550,866.683 L540.252,826.472 A1172.500,1172.500 0.000 0,0 523.564,850.902 Z" style="stroke-linecap:round;fill:rgb(253,174,107);" />
<path d="M597.550,866.683 A1102.500,1102.500 40.000 0,1 613.817,844.115 L557.551,802.471 A1172.500,1172.500 0.000 0,0 540.252,826.472 Z" style="stroke-linecap:round;fill:rgb(253,174,107);" />
<path d="M613.817,844.115 A1102.500,1102.500 40.000 0,1 630.648,821.964 L575.451,778.914 A1172.500,1172.500 0.000 0,0 557.551,802.471 Z" style="stroke-linecap:round;fill:rgb(253,174,107);" />
<path d="M630.648,821.964 A1102.500,1102.500 40.000 0,1 648.032,800.245 L593.939,755.817 A1172.500,1172.500 0.000 0,0 575.451,778.914 Z" style="stroke-linecap:round;fill:rgb(253,174,107);" />
<path d="M849.718,609.697 A1102.500,1102.500 40.000 0,1 872.388,593.573 L832.540,536.022 A1172.500,1172.500 0.000 0,0 808.430,553.170 Z" style="stroke-linecap:round;fill:rgb(230,85,13);" />
<path d="M872.388,593.573 A1102.500,1102.500 40.000 0,1 895.458,578.026 L857.075,519.488 A1172.500,1172.500 0.000 0,0 832.540,536.022 Z" style="stroke-linecap:round;fill:rgb(230,85,13);" />
<path d="M895.458,578.026 A1102.500,1102.500 40.000 0,1 918.913,563.067 L882.019,503.579 A1172.500,1172.500 0.000 0,0 857.075,519.488 Z" style="stroke-linecap:round;fill:rgb(230,85,13);" />
<path d="M918.913,563.067 A1102.500,1102.500 40.000 0,1 942.738,548.703 L907.356,488.304 A1172.500,1172.500 0.000 0,0 882.019,503.579 Z" style="stroke-linecap:round;fill:rgb(253,174,107);" />
<path d="M942.738,548.703 A1102.500,1102.500 40.000 0,1 966.917,534.946 L933.071,473.673 A1172.500,1172.500 0.000 0,0 907.356,488.304 Z" style="stroke-linecap:round;fill:rgb(253,174,107);" />
<path d="M966.917,534.946 A1102.500,1102.500 40.000 0,1 991.436,521.803 L959.147,459.695 A1172.500,1172.500 0.000 0,0 933.071,473.673 Z" style="stroke-linecap:round;fill:rgb(253,174,107);" />
<path d="M991.436,521.803 A1102.500,1102.500 40.000 0,1 1016.279,509.283 L985.567,446.380 A1172.500,1172.500 0.000 0,0 959.147,459.695 Z" style="stroke-linecap:round;fill:rgb(253,174,107);" />
<path d="M1016.279,509.283 A1102.500,1102.500 40.000 0,1 1041.430,497.394 L1012.314,433.736 A1172.500,1172.500 0.000 0,0 985.567,446.380 Z" style="stroke-linecap:round;fill:rgb(253,174,107);" />
<path d="M1041.430,497.394 A1102.500,1102.500 40.000 0,1 1066.873,486.143 L1039.372,421.771 A1172.500,1172.500 0.000 0,0 1012.314,433.736 Z" style="stroke-linecap:round;fill:rgb(253,174,107);" />
<path d="M1066.873,486.143 A1102.500,1102.500 40.000 0,1 1092.591,475.537 L1066.724,410.492 A1172.500,1172.500 0.000 0,0 1039.372,421.771 Z" style="stroke-linecap:round;fill:rgb(253,174,107);" />
<path d="M1092.591,475.537 A1102.500,1102.500 40.000 0,1 1118.569,465.584 L1094.351,399.907 A1172.500,1172.500 0.000 0,0 1066.724,410.492 Z" style="stroke-linecap:round;fill:rgb(253,174,107);" />
<path d="M1118.569,465.584 A1102.500,1102.500 40.000 0,1 1144.790,456.289 L1122.237,390.022 A1172.500,1172.500 0.000 0,0 1094.351,399.907 Z" style="stroke-linecap:round;fill:rgb(253,174,107);" />
<path d="M1144.790,456.289 A1102.500,1102.500 40.000 0,1 1171.237,447.659 L1150.363,380.844 A1172.500,1172.500 0.000 0,0 1122.237,390.022 Z" style="stroke-linecap:round;fill:rgb(253,174,107);" />
<path d="M1171.237,447.659 A1102.500,1102.500 40.000 0,1 1197.893,439.699 L1178.712,372.379 A1172.500,1172.500 0.000 0,0 1150.363,380.844 Z" style="stroke-linecap:round;fill:rgb(253,174,107);" />
<path d="M1197.893,439.699 A1102.500,1102.500 40.000 0,1 1224.742,432.414 L1207.265,364.631 A1172.500,1172.500 0.000 0,0 1178.712,372.379 Z" style="stroke-linecap:round;fill:rgb(253,174,107);" />
</g>
<defs>
</defs>
</svg>
